<svg width="23" height="21" viewBox="0 0 23 21" fill="none" xmlns="http://www.w3.org/2000/svg">
<path fill-rule="evenodd" clip-rule="evenodd" d="M15.397 16.5775C13.9702 17.5693 11.3091 19.0025 7.77806 18.8331C4.92063 18.6984 2.70474 17.5731 1.28308 16.5787V14.7657C1.28308 13.2273 2.26593 11.9032 3.61958 11.6183C4.98222 11.3322 6.37694 11.168 7.76395 11.1333C9.52433 11.0871 11.3194 11.2514 13.0644 11.6196C14.4155 11.9045 15.397 13.2273 15.397 14.767V16.5775ZM5.13235 6.64254V6.55914C5.6828 6.4103 6.03436 6.08824 6.31023 5.8329C6.631 5.5378 6.82473 5.35945 7.2751 5.35945C7.71649 5.35945 7.90766 5.53651 8.22458 5.83035C8.59797 6.17292 9.10863 6.64254 10.0594 6.64254C10.7535 6.64254 11.2065 6.3872 11.5478 6.11647V6.64254C11.5478 8.41191 10.1094 9.85025 8.34006 9.85025C6.57069 9.85025 5.13235 8.41191 5.13235 6.64254ZM8.34005 2.15174C9.82074 2.15174 11.0576 3.16537 11.4259 4.53186C11.2668 4.64862 11.1295 4.77436 11.0012 4.89241C10.6855 5.18367 10.4969 5.35945 10.0594 5.35945C9.60903 5.35945 9.41528 5.1811 9.09451 4.88599C8.72498 4.5447 8.21688 4.07636 7.27509 4.07636C6.32433 4.07636 5.81366 4.54726 5.44028 4.88984C5.33635 4.98607 5.24526 5.06434 5.15544 5.13362C5.27347 3.47205 6.64894 2.15174 8.34005 2.15174ZM13.3287 10.3648C12.6435 10.2198 11.9494 10.1146 11.2552 10.0299C12.2124 9.20614 12.8308 8.00132 12.8308 6.64253V5.35944C12.8308 2.88439 10.8164 0.868652 8.34005 0.868652C5.86369 0.868652 3.84925 2.88439 3.84925 5.35945V6.64254C3.84925 7.99876 4.46514 9.201 5.41975 10.026C4.72688 10.1094 4.03658 10.2198 3.35526 10.3635C1.41141 10.7715 0 12.623 0 14.7657V17.2318L0.260463 17.4243C1.80787 18.565 4.35736 19.9571 7.71776 20.1149C7.92434 20.1239 8.12834 20.129 8.32979 20.129C12.1444 20.129 15.0108 18.4572 16.4184 17.4243L16.6801 17.2331V14.767C16.6801 12.6243 15.27 10.7728 13.3287 10.3648ZM22.0406 0.868652L19.6416 3.26771L17.2439 0.868652L16.2832 1.828L18.6823 4.22706L16.2832 6.62612L17.2439 7.58547L19.6416 5.1864L22.0406 7.58547L23 6.62612L20.6009 4.22706L23 1.828L22.0406 0.868652Z" fill="black" fill-opacity="0.6"/>
</svg>
