<svg width="31" height="27" viewBox="0 0 31 27" fill="none" xmlns="http://www.w3.org/2000/svg">
<path d="M13.8457 10.751L2.17904 3.12396V18.4365C2.17904 18.698 2.26313 18.9128 2.43133 19.081C2.59952 19.2492 2.81487 19.3333 3.07737 19.3333H17.8284V20.7917H3.07737C2.40654 20.7917 1.84605 20.5671 1.39591 20.1179C0.945773 19.6688 0.720703 19.1083 0.720703 18.4365V2.73021C0.720703 2.05937 0.945773 1.49938 1.39591 1.05021C1.84605 0.601042 2.40605 0.375972 3.07591 0.375H24.6155C25.2863 0.375 25.8468 0.60007 26.297 1.05021C26.7471 1.50035 26.9717 2.06035 26.9707 2.73021V9.68646H25.5124V3.12396L13.8457 10.751ZM13.8457 9.125L25.0647 1.83333H2.6282L13.8457 9.125ZM25.5124 26.5696C24.1892 26.5696 23.0638 26.1058 22.1363 25.1783C21.2088 24.2508 20.7451 23.125 20.7451 21.8008V15.2383C20.7451 14.4606 21.0086 13.8082 21.5355 13.2813C22.0634 12.7543 22.7163 12.4908 23.494 12.4908C24.2718 12.4908 24.9242 12.7543 25.4511 13.2813C25.9781 13.8082 26.2415 14.4606 26.2415 15.2383V21.8008H24.7832V15.2383C24.7832 14.8757 24.6592 14.5699 24.4113 14.321C24.1624 14.0731 23.8562 13.9492 23.4926 13.9492C23.129 13.9492 22.8237 14.0731 22.5767 14.321C22.3298 14.569 22.2054 14.8752 22.2034 15.2398V21.8023C22.2034 22.7162 22.5267 23.4959 23.1732 24.1415C23.8197 24.787 24.5995 25.1103 25.5124 25.1112C26.4253 25.1122 27.2055 24.789 27.853 24.1415C28.5005 23.494 28.8238 22.7137 28.8228 21.8008V15.9675H30.2811V21.8008C30.2811 23.125 29.8174 24.2508 28.8899 25.1783C27.9624 26.1058 26.8365 26.5696 25.5124 26.5696ZM2.17904 3.12396V1.83333V19.3333V3.12396Z" fill="black" fill-opacity="0.7"/>
</svg>
