<svg width="34" height="34" viewBox="0 0 34 34" fill="none" xmlns="http://www.w3.org/2000/svg">
<path d="M20.8077 16.3092L9.04688 14.2373V29.5469C9.04701 29.7132 9.07991 29.8778 9.14369 30.0315C9.20746 30.1851 9.30087 30.3246 9.41858 30.4421C9.53628 30.5596 9.67598 30.6528 9.82969 30.7163C9.9834 30.7798 10.1481 30.8124 10.3144 30.8123H30.6082C30.7747 30.8127 30.9396 30.7803 31.0936 30.7169C31.2475 30.6535 31.3875 30.5604 31.5054 30.4429C31.6234 30.3253 31.7169 30.1857 31.7809 30.0319C31.8448 29.8782 31.8777 29.7134 31.8779 29.5469V23.9061L20.8077 16.3092Z" fill="#185C37"/>
<path d="M20.8077 3.1875H10.3144C10.1481 3.18736 9.9834 3.21998 9.82969 3.2835C9.67598 3.34702 9.53628 3.44019 9.41858 3.5577C9.30087 3.67521 9.20746 3.81474 9.14369 3.96835C9.07991 4.12196 9.04701 4.28662 9.04688 4.45294V10.0938L20.8077 17L27.035 19.0719L31.8779 17V10.0938L20.8077 3.1875Z" fill="#21A366"/>
<path d="M9.04688 10.0938H20.8077V17H9.04688V10.0938Z" fill="#107C41"/>
<path opacity="0.1" d="M17.464 8.71289H9.04688V25.9785H17.464C17.7994 25.9768 18.1206 25.8431 18.3581 25.6062C18.5955 25.3694 18.7301 25.0485 18.7326 24.7131V9.97833C18.7301 9.64294 18.5955 9.32205 18.3581 9.08518C18.1206 8.84832 17.7994 8.71456 17.464 8.71289Z" fill="black"/>
<path opacity="0.2" d="M16.7723 9.40332H9.04688V26.6689H16.7723C17.1077 26.6673 17.4289 26.5335 17.6664 26.2967C17.9039 26.0598 18.0384 25.7389 18.0409 25.4035V10.6688C18.0384 10.3334 17.9039 10.0125 17.6664 9.77561C17.4289 9.53875 17.1077 9.40499 16.7723 9.40332Z" fill="black"/>
<path opacity="0.2" d="M16.7723 9.40332H9.04688V25.2877H16.7723C17.1077 25.286 17.4289 25.1523 17.6664 24.9154C17.9039 24.6785 18.0384 24.3576 18.0409 24.0223V10.6688C18.0384 10.3334 17.9039 10.0125 17.6664 9.77561C17.4289 9.53875 17.1077 9.40499 16.7723 9.40332Z" fill="black"/>
<path opacity="0.2" d="M16.0806 9.40332H9.04688V25.2877H16.0806C16.416 25.286 16.7373 25.1523 16.9747 24.9154C17.2122 24.6785 17.3467 24.3576 17.3492 24.0223V10.6688C17.3467 10.3334 17.2122 10.0125 16.9747 9.77561C16.7373 9.53875 16.416 9.40499 16.0806 9.40332Z" fill="black"/>
<path d="M3.39363 9.40332H16.0778C16.4137 9.40304 16.7361 9.53617 16.974 9.77345C17.2119 10.0107 17.3458 10.3328 17.3464 10.6688V23.3316C17.3458 23.6676 17.2119 23.9897 16.974 24.2269C16.7361 24.4642 16.4137 24.5974 16.0778 24.5971H3.39363C3.22722 24.5973 3.06238 24.5648 2.90855 24.5014C2.75471 24.4379 2.61489 24.3448 2.49708 24.2272C2.37926 24.1097 2.28576 23.9701 2.22191 23.8165C2.15807 23.6628 2.12514 23.498 2.125 23.3316V10.6688C2.12514 10.5024 2.15807 10.3376 2.22191 10.1839C2.28576 10.0303 2.37926 9.89066 2.49708 9.77314C2.61489 9.65562 2.75471 9.56247 2.90855 9.49902C3.06238 9.43556 3.22722 9.40304 3.39363 9.40332Z" fill="url(#paint0_linear_867_2773)"/>
<path d="M6.05469 21.1149L8.72263 16.9881L6.27887 12.8848H8.24131L9.57475 15.5123C9.698 15.761 9.78725 15.9458 9.82763 16.0691H9.84569C9.93281 15.8693 10.0252 15.677 10.1219 15.489L11.5478 12.889H13.3541L10.8476 16.969L13.4178 21.1181H11.4957L9.95513 18.2376C9.88359 18.1138 9.82281 17.9841 9.77344 17.8498H9.74794C9.70301 17.9806 9.64312 18.1057 9.56944 18.2228L7.98312 21.1149H6.05469Z" fill="white"/>
<path d="M30.6063 3.1875H20.8047V10.0938H31.8749V4.45294C31.8747 4.28653 31.8418 4.12178 31.778 3.96811C31.7141 3.81443 31.6206 3.67484 31.5028 3.55732C31.385 3.4398 31.2452 3.34665 31.0913 3.2832C30.9375 3.21974 30.7727 3.18722 30.6063 3.1875Z" fill="#33C481"/>
<path d="M20.8047 17H31.8749V23.9062H20.8047V17Z" fill="#107C41"/>
<defs>
<linearGradient id="paint0_linear_867_2773" x1="4.77487" y1="8.40882" x2="14.6965" y2="25.5916" gradientUnits="userSpaceOnUse">
<stop stop-color="#18884F"/>
<stop offset="0.5" stop-color="#117E43"/>
<stop offset="1" stop-color="#0B6631"/>
</linearGradient>
</defs>
</svg>
