<svg width="15" height="12" viewBox="0 0 15 12" fill="none" xmlns="http://www.w3.org/2000/svg">
<g clip-path="url(#clip0_510_1671)">
<path d="M3.6511 2.17429C4.67845 1.3657 5.99569 0.749996 7.5773 0.749996C9.45111 0.749996 10.9516 1.61343 12.0438 2.63906C13.1292 3.65625 13.855 4.8539 14.1983 5.71171C14.2748 5.89687 14.2748 6.10312 14.1983 6.28828C13.8875 7.04531 13.2637 8.11171 12.3453 9.06328L14.785 10.9945C15.0262 11.1867 15.0702 11.5406 14.8801 11.7844C14.6899 12.0281 14.3397 12.0727 14.0985 11.8805L0.369508 1.00523C0.127582 0.813511 0.0851661 0.460074 0.274797 0.215527C0.464451 -0.028973 0.814169 -0.0718402 1.05628 0.119808L3.6511 2.17429ZM5.33011 3.5039L7.42424 5.16328C7.52164 4.96406 7.5773 4.73906 7.5773 4.4789C7.5773 4.23046 7.48686 3.97734 7.3825 3.75937C7.44743 3.75234 7.51236 3.7289 7.5773 3.7289C8.80641 3.7289 9.80361 4.73671 9.80361 5.9789C9.80361 6.32109 9.73636 6.62578 9.59722 6.90234L10.5133 7.61015C10.7707 7.13203 10.9168 6.58359 10.9168 5.9789C10.9168 4.13671 9.42097 2.6039 7.5773 2.6039C6.71228 2.6039 5.92148 2.95781 5.33011 3.5039ZM7.5773 11.25C5.70348 11.25 4.20304 10.3875 3.11075 9.36093C2.02589 8.32265 1.30048 7.125 0.9554 6.28828C0.879335 6.10312 0.879335 5.89687 0.9554 5.71171C1.17664 5.175 1.55442 4.48125 2.08317 3.78515L4.27029 5.52656C4.24942 5.68125 4.23782 5.83828 4.23782 5.9789C4.23782 7.86328 5.73363 9.375 7.5773 9.375C8.01097 9.375 8.42608 9.29062 8.80641 9.13828L10.504 10.4883C9.66215 10.9477 8.68582 11.25 7.5773 11.25Z" fill="#8D8D8D"/>
</g>
<defs>
<clipPath id="clip0_510_1671">
<rect width="14.8421" height="12" fill="white" transform="translate(0.15625)"/>
</clipPath>
</defs>
</svg>
