<svg width="27" height="29" viewBox="0 0 27 29" fill="none" xmlns="http://www.w3.org/2000/svg">
<path d="M6.86381 4.15826C8.60652 3.0966 11.0952 2.53222 13.6874 2.61826C16.2759 2.70503 18.8593 3.43712 20.8026 4.84732C20.9983 4.98927 21.2424 5.04766 21.4811 5.00964C21.7199 4.97163 21.9337 4.84032 22.0757 4.64462C22.2176 4.44891 22.276 4.20483 22.238 3.96607C22.2 3.72731 22.0687 3.51344 21.873 3.37149C19.5688 1.70024 16.6084 0.892324 13.7486 0.796803C10.8939 0.701282 8.03194 1.31232 5.9159 2.60222C5.80972 2.66246 5.71672 2.74342 5.64242 2.84028C5.56812 2.93715 5.51404 3.04796 5.48339 3.16613C5.45274 3.2843 5.44614 3.40742 5.46398 3.52819C5.48182 3.64896 5.52374 3.76492 5.58725 3.86917C5.65077 3.97343 5.73458 4.06387 5.83371 4.13512C5.93284 4.20637 6.04528 4.25697 6.16434 4.28394C6.28341 4.3109 6.40667 4.31367 6.52683 4.29208C6.64699 4.27049 6.76158 4.22499 6.86381 4.15826ZM14.5179 5.02451C14.2778 4.99608 14.0362 5.0642 13.8464 5.21386C13.6565 5.36353 13.5339 5.58249 13.5054 5.82258C13.477 6.06267 13.5451 6.30422 13.6948 6.4941C13.8444 6.68397 14.0634 6.8066 14.3035 6.83503C20.0121 7.51316 23.7273 11.9217 24.8152 18.1211C24.8606 18.3557 24.9963 18.5631 25.1932 18.6986C25.39 18.834 25.6322 18.8868 25.8675 18.8455C26.1029 18.8042 26.3126 18.6722 26.4516 18.4777C26.5905 18.2833 26.6475 18.0421 26.6104 17.8061C25.4262 11.0576 21.2474 5.82368 14.5179 5.02451ZM9.631 12.3745C6.84777 14.6021 5.25454 19.4256 8.30027 25.5797C8.40562 25.7961 8.42114 26.0453 8.34344 26.2731C8.26573 26.5008 8.10112 26.6886 7.8855 26.7954C7.66988 26.9023 7.42076 26.9195 7.19248 26.8434C6.96419 26.7673 6.77528 26.604 6.66694 26.3891C3.32444 19.6363 4.90236 13.8234 8.49204 10.9512C10.2705 9.52784 12.5185 8.86212 14.7862 9.21795C17.0612 9.57524 19.2669 10.9475 20.9921 13.4333C21.0628 13.5315 21.1132 13.6427 21.1404 13.7606C21.1676 13.8785 21.1711 14.0006 21.1506 14.1198C21.1301 14.239 21.0861 14.353 21.0212 14.455C20.9562 14.5571 20.8716 14.6451 20.7722 14.7142C20.6729 14.7832 20.5608 14.8317 20.4425 14.8569C20.3242 14.8822 20.2021 14.8836 20.0832 14.8612C19.9643 14.8388 19.8511 14.7929 19.7502 14.7262C19.6492 14.6596 19.5625 14.5735 19.4952 14.4731C18.012 12.3366 16.2198 11.2888 14.5033 11.019C12.7781 10.7477 11.0398 11.2472 9.631 12.3745ZM13.0428 27.0381C11.1761 23.2683 10.6074 20.0818 10.9457 17.9723C11.1134 16.9267 11.4926 16.2128 11.9687 15.7841C12.4288 15.3707 13.0698 15.141 13.9601 15.2248C15.1442 15.3371 15.6977 15.7265 16.0396 16.191C16.4349 16.7276 16.6434 17.4816 16.8811 18.5557L16.9526 18.8816C17.3937 20.9116 17.977 23.5898 20.8069 25.63C21.003 25.7714 21.2473 25.8291 21.4859 25.7904C21.7245 25.7517 21.938 25.6198 22.0793 25.4237C22.2207 25.2276 22.2784 24.9834 22.2397 24.7447C22.201 24.5061 22.0691 24.2926 21.873 24.1513C19.6199 22.5267 19.1678 20.4704 18.7186 18.4244L18.6603 18.1619C18.4342 17.1396 18.1659 16.0036 17.5075 15.1103C16.7958 14.1442 15.7188 13.5609 14.1321 13.4107C12.8124 13.2852 11.6435 13.6258 10.751 14.4278C9.87527 15.2153 9.35829 16.3601 9.14538 17.6836C8.72392 20.3122 9.45381 23.8975 11.4087 27.8467C11.5198 28.0565 11.7083 28.2147 11.9342 28.2876C12.1601 28.3606 12.4056 28.3425 12.6184 28.2372C12.8311 28.132 12.9945 27.9479 13.0736 27.724C13.1527 27.5002 13.1414 27.2544 13.042 27.0388M4.52173 4.96545C4.68162 5.14667 4.76299 5.38398 4.74795 5.62518C4.7329 5.86639 4.62269 6.09174 4.44152 6.2517C3.27704 7.27909 2.49173 8.31305 1.71152 9.6693C1.65177 9.77306 1.57217 9.86402 1.47726 9.93701C1.38236 10.01 1.274 10.0636 1.15839 10.0947C1.04278 10.1258 0.922166 10.1338 0.803446 10.1183C0.684727 10.1028 0.570223 10.0641 0.466471 10.0044C0.36272 9.9446 0.271754 9.865 0.198766 9.7701C0.125779 9.67519 0.072199 9.56684 0.0410866 9.45122C0.0099741 9.33561 0.00193816 9.215 0.0174375 9.09628C0.0329368 8.97756 0.0716677 8.86306 0.131419 8.7593C0.988919 7.26962 1.89309 6.06868 3.23475 4.88524C3.3245 4.80596 3.429 4.74515 3.54226 4.70627C3.65553 4.66739 3.77534 4.65121 3.89486 4.65866C4.01438 4.66611 4.13126 4.69704 4.23882 4.74968C4.34638 4.80232 4.44252 4.87564 4.52173 4.96545ZM22.4206 17.8243C22.38 17.5886 22.2484 17.3783 22.0542 17.2387C21.86 17.0992 21.6187 17.0415 21.3823 17.0783C21.146 17.115 20.9336 17.2432 20.7909 17.4351C20.6482 17.6271 20.5866 17.8674 20.6195 18.1043C20.9914 20.4938 22.2274 22.0032 23.7221 23.0794C23.8193 23.1493 23.9293 23.1994 24.0459 23.2268C24.1624 23.2542 24.2832 23.2583 24.4014 23.239C24.5195 23.2197 24.6327 23.1773 24.7345 23.1143C24.8363 23.0513 24.9246 22.9688 24.9945 22.8716C25.0644 22.7744 25.1145 22.6644 25.1419 22.5479C25.1693 22.4313 25.1735 22.3105 25.1542 22.1924C25.1349 22.0742 25.0925 21.961 25.0294 21.8592C24.9664 21.7575 24.8839 21.6691 24.7867 21.5992C23.6018 20.7461 22.7028 19.6348 22.4206 17.8243ZM13.6137 17.7842C13.7331 17.7752 13.8531 17.7899 13.9669 17.8274C14.0806 17.8648 14.1859 17.9243 14.2766 18.0025C14.3674 18.0806 14.4418 18.1759 14.4957 18.2828C14.5496 18.3897 14.5819 18.5062 14.5908 18.6257C14.8132 21.597 15.9011 24.1141 17.6489 26.1142C17.7302 26.2039 17.7929 26.3089 17.8332 26.4231C17.8735 26.5373 17.8906 26.6584 17.8836 26.7792C17.8765 26.9001 17.8455 27.0184 17.7923 27.1271C17.739 27.2359 17.6646 27.3329 17.5735 27.4126C17.4823 27.4923 17.3762 27.553 17.2613 27.5913C17.1464 27.6295 17.025 27.6444 16.9043 27.6352C16.7836 27.626 16.6659 27.5928 16.5581 27.5376C16.4503 27.4824 16.3546 27.4063 16.2766 27.3137C14.2627 25.0095 13.0245 22.1176 12.773 18.7613C12.764 18.6419 12.7787 18.522 12.8161 18.4083C12.8535 18.2946 12.9129 18.1894 12.991 18.0986C13.0691 18.0079 13.1642 17.9334 13.2711 17.8795C13.3779 17.8255 13.4944 17.7932 13.6137 17.7842ZM10.7539 7.13837C10.9768 7.04457 11.1533 6.86608 11.2446 6.64216C11.3358 6.41824 11.3344 6.16723 11.2406 5.94436C11.1468 5.72148 10.9684 5.54499 10.7444 5.45371C10.5205 5.36243 10.2695 5.36384 10.0466 5.45764C3.50527 8.20878 0.243711 14.3637 1.11069 21.7159C1.12467 21.8347 1.16193 21.9497 1.22034 22.0542C1.27875 22.1587 1.35717 22.2506 1.45111 22.3248C1.54506 22.399 1.6527 22.4539 1.76788 22.4865C1.88306 22.5191 2.00353 22.5287 2.12241 22.5147C2.24129 22.5007 2.35625 22.4634 2.46073 22.405C2.56521 22.3466 2.65717 22.2682 2.73134 22.1742C2.80552 22.0803 2.86046 21.9727 2.89304 21.8575C2.92562 21.7423 2.93519 21.6218 2.92121 21.503C2.13882 14.8675 5.0409 9.54097 10.7546 7.13691" fill="black" fill-opacity="0.7"/>
</svg>
