<svg width="200" height="203" viewBox="0 0 200 203" fill="none" xmlns="http://www.w3.org/2000/svg">
<path d="M3.50028 171.398C11.1163 189.983 23.5343 193.852 32.2651 189.983C49.1502 182.502 93.0118 174.143 138.059 193.791C197.722 219.814 210.416 180.552 191.375 140.838C172.334 101.123 165.88 60.9609 187.831 38.8338C209.782 16.7066 181.057 -17.9082 130.044 18.1234C97.0774 41.4084 72.8839 36.2235 59.892 29.6409C47.6476 23.4371 34.0304 16.9513 21.2723 22.0154C5.7918 28.1604 -0.307998 41.4831 23.2449 71.2461C56.6213 113.423 -13.572 129.741 3.50028 171.398Z" fill="#DEE9FF"/>
<path d="M34.5103 80.8633H153.038V172.019C153.038 172.204 152.965 172.382 152.833 172.514C152.702 172.645 152.524 172.719 152.338 172.719H35.2103C35.0246 172.719 34.8465 172.645 34.7153 172.514C34.584 172.382 34.5103 172.204 34.5103 172.019V80.8633Z" fill="#A2BDFF"/>
<path d="M123.304 45.1426H68.1905L34.5103 80.864H153.038L123.304 45.1426Z" fill="#418DF9"/>
<path d="M45.7368 30.8535L68.1902 45.1422L34.51 80.8636L8.99463 61.4719L45.7368 30.8535Z" fill="#699CFF"/>
<path d="M145.757 30.8535L123.303 45.1422L153.038 80.8636L182.499 61.4719L145.757 30.8535Z" fill="#699CFF"/>
<path d="M82.6698 31.5854C83.3034 31.285 83.7964 30.7513 84.0457 30.0959C84.2951 29.4404 84.2814 28.714 84.0077 28.0684L73.9068 4.25053C73.7637 3.91316 73.5539 3.6082 73.29 3.354C73.026 3.09979 72.7134 2.90159 72.3709 2.77131C72.0284 2.64103 71.6631 2.58136 71.2969 2.59589C70.9307 2.61041 70.5713 2.69884 70.2402 2.85584L68.2942 3.77858C67.9631 3.93559 67.6671 4.15792 67.4242 4.43222C67.1812 4.70652 66.9962 5.02712 66.8803 5.37475C66.7644 5.72238 66.7199 6.08986 66.7497 6.45509C66.7794 6.82032 66.8827 7.17577 67.0534 7.50007L79.1001 30.3951C79.4267 31.0157 79.9804 31.4861 80.6457 31.7079C81.3109 31.9297 82.0362 31.8858 82.6698 31.5854Z" fill="#418DF9"/>
<path d="M95.3336 29.2755C95.7922 29.2429 96.2204 29.0343 96.5288 28.6933C96.8372 28.3523 97.0019 27.9054 96.9885 27.4459L96.4896 10.4896C96.4825 10.2494 96.4269 10.0132 96.3262 9.79501C96.2255 9.57685 96.0817 9.38131 95.9035 9.22014C95.7252 9.05898 95.5163 8.93551 95.2891 8.85717C95.062 8.77882 94.8213 8.74722 94.5816 8.76425L93.1728 8.86463C92.9332 8.88169 92.6996 8.94701 92.4859 9.05666C92.2721 9.16632 92.0828 9.31805 91.9292 9.50273C91.7756 9.68742 91.661 9.90125 91.5921 10.1314C91.5233 10.3615 91.5016 10.6032 91.5286 10.8419L93.4363 27.6979C93.4879 28.1548 93.7141 28.5742 94.0677 28.8682C94.4213 29.1622 94.8749 29.3082 95.3336 29.2755V29.2755Z" fill="#418DF9"/>
<path d="M105.11 35.5437C106.371 36.2729 108.142 35.6037 109.124 34.0264L126.563 6.01897C127.605 4.34583 127.358 2.30659 126.02 1.53309L124.156 0.455089C122.818 -0.31855 120.927 0.484767 119.997 2.22231L104.422 31.3076C103.545 32.9457 103.849 34.8143 105.11 35.5437Z" fill="#418DF9"/>
</svg>
