<svg width="117" height="135" viewBox="0 0 117 135" fill="none" xmlns="http://www.w3.org/2000/svg">
<path d="M116.359 31.0676V135H3.60156V0.000976562H85.2929L99.7627 14.471L116.359 31.0676Z" fill="#B12A27"/>
<path d="M54.7189 9.04297H0.640625V33.2396H54.7189V9.04297Z" fill="#F2F2F2"/>
<path d="M20.037 16.9757C19.7984 16.3993 19.4804 15.8825 19.0432 15.4454C18.606 15.0082 18.0692 14.6504 17.453 14.4118C16.817 14.1534 16.1014 14.0342 15.3064 14.0342H9.36328V29.3786H12.3647V23.5944H15.3064C16.1014 23.5944 16.817 23.4752 17.453 23.2168C18.0692 22.9782 18.6058 22.6207 19.0432 22.1832C19.4806 21.7461 19.7986 21.249 20.037 20.6529C20.2556 20.0765 20.375 19.4603 20.375 18.8243C20.3747 18.1683 20.2556 17.5521 20.037 16.9757ZM16.797 20.3346C16.3994 20.7122 15.843 20.911 15.1672 20.911H12.3647V16.6973H15.1672C15.843 16.6973 16.3996 16.8961 16.797 17.2934C17.1746 17.671 17.3734 18.1878 17.3734 18.8238C17.3736 19.4402 17.1748 19.957 16.797 20.3346Z" fill="#B12A27"/>
<path d="M34.3882 19.9761C34.3684 19.4395 34.3484 18.9625 34.2888 18.5251C34.2292 18.0877 34.1298 17.6903 33.9906 17.3128C33.8514 16.955 33.6726 16.5971 33.434 16.2792C32.8974 15.504 32.2414 14.9276 31.506 14.5698C30.7506 14.212 29.8562 14.0332 28.8029 14.0332H23.2773V29.3776H28.8029C29.8562 29.3776 30.7506 29.1988 31.506 28.841C32.2414 28.4832 32.8974 27.9068 33.434 27.1316C33.6726 26.8136 33.8514 26.4558 33.9906 26.098C34.1298 25.7205 34.2292 25.3228 34.2888 24.8857C34.3484 24.4485 34.3682 23.9713 34.3882 23.4347C34.408 22.9179 34.408 22.3415 34.408 21.7055C34.408 21.0696 34.408 20.4929 34.3882 19.9761ZM31.3868 23.2559C31.3868 23.7131 31.347 24.0709 31.3072 24.3889C31.2674 24.6871 31.2078 24.9653 31.1284 25.1641C31.0491 25.3827 30.9296 25.5815 30.7907 25.7603C30.2937 26.3962 29.5385 26.6945 28.5447 26.6945H26.2589V16.6966H28.5447C29.5385 16.6966 30.2939 17.0145 30.7907 17.6505C30.9299 17.8293 31.0491 18.0083 31.1284 18.2269C31.2078 18.4455 31.2677 18.7039 31.3072 19.0219C31.347 19.3201 31.3868 19.6977 31.3868 20.1348C31.4066 20.5723 31.4066 21.1088 31.4066 21.705C31.4069 22.3017 31.4069 22.8185 31.3868 23.2559Z" fill="#B12A27"/>
<path d="M47.2069 16.6966V14.0332H37.0898V29.3776H40.0912V23.1565H46.1536V20.4731H40.0912V16.6966H47.2069Z" fill="#B12A27"/>
<path d="M20.037 16.9757C19.7984 16.3993 19.4804 15.8825 19.0432 15.4454C18.606 15.0082 18.0692 14.6504 17.453 14.4118C16.817 14.1534 16.1014 14.0342 15.3064 14.0342H9.36328V29.3786H12.3647V23.5944H15.3064C16.1014 23.5944 16.817 23.4752 17.453 23.2168C18.0692 22.9782 18.6058 22.6207 19.0432 22.1832C19.4806 21.7461 19.7986 21.249 20.037 20.6529C20.2556 20.0765 20.375 19.4603 20.375 18.8243C20.3747 18.1683 20.2556 17.5521 20.037 16.9757ZM16.797 20.3346C16.3994 20.7122 15.843 20.911 15.1672 20.911H12.3647V16.6973H15.1672C15.843 16.6973 16.3996 16.8961 16.797 17.2934C17.1746 17.671 17.3734 18.1878 17.3734 18.8238C17.3736 19.4402 17.1748 19.957 16.797 20.3346Z" fill="#B12A27"/>
<path opacity="0.08" d="M116.359 31.0673V135H3.60156V110.632L56.3133 57.9201L59.4338 54.7996L61.163 53.0702L64.0452 50.1882L67.4639 46.7695L99.7627 14.4707L116.359 31.0673Z" fill="#040000"/>
<path d="M116.359 31.07H85.2891V0L116.359 31.07Z" fill="#771B1B"/>
<path d="M100.257 97.7318C99.6012 96.579 98.7068 95.4858 97.5938 94.492C96.6797 93.6572 95.6063 92.882 94.3936 92.1664C89.5041 89.2845 82.5276 87.8931 73.0465 87.8931H72.0925C71.5757 87.4161 71.0392 86.9391 70.4825 86.4421C66.885 83.2024 64.0228 79.6842 61.7967 75.7687C66.1694 66.1286 68.2564 57.5421 67.998 50.2276C67.9582 48.9952 67.7794 47.8424 67.4614 46.769C66.9844 45.0398 66.1894 43.5092 65.0762 42.257C65.0564 42.2373 65.0564 42.2373 65.0364 42.2172C63.2674 40.2297 60.8029 39.0967 58.2983 39.0967C55.7739 39.0967 53.4486 40.1899 51.7589 42.1975C50.0894 44.185 49.195 46.9082 49.1552 50.1081C49.0956 54.9977 49.493 59.6288 50.328 63.9021C50.4074 64.2402 50.4672 64.5779 50.5466 64.9157C51.3814 68.7917 52.6138 72.4686 54.2037 75.8873C52.3353 79.6837 50.4472 82.9632 49.1351 85.1894C48.1414 86.879 47.0482 88.648 45.9152 90.417C40.8071 91.3314 36.4739 92.4443 32.6976 93.8357C27.5895 95.6843 23.4949 98.0693 20.5531 100.912C18.6449 102.74 17.3529 104.688 16.717 106.716C16.0412 108.803 16.081 110.89 16.8361 112.758C17.5317 114.487 18.7839 115.938 20.4537 116.932C20.8513 117.17 21.2687 117.369 21.7059 117.548C22.9781 118.065 24.3692 118.343 25.8202 118.343C29.1794 118.343 32.6377 116.892 35.5595 114.288C41.0056 109.418 46.6305 101.587 49.9499 96.6381C52.6728 96.2207 55.6344 95.8629 58.9738 95.5051C62.9094 95.1074 66.3877 94.8691 69.5481 94.7496C70.5221 95.6242 71.4563 96.459 72.3507 97.254C77.3198 101.686 81.0961 104.886 84.5149 107.132C84.5149 107.152 84.5347 107.152 84.5547 107.152C85.9063 108.047 87.1983 108.782 88.4903 109.378C89.9413 110.054 91.412 110.412 92.9226 110.412C94.8308 110.412 96.6196 109.836 98.1104 108.782C99.6209 107.689 100.714 106.119 101.211 104.35C101.788 102.224 101.45 99.8585 100.257 97.7318ZM56.3107 57.9197C56.0325 55.4549 55.9131 52.8909 55.9529 50.1878C55.9927 47.6238 56.9269 45.8944 58.2983 45.8944C59.3319 45.8944 60.425 46.8286 60.9218 48.6173C61.061 49.1539 61.1604 49.7701 61.1802 50.4657C61.22 51.3005 61.2 52.1751 61.1604 53.0694C61.0412 55.5938 60.6038 58.277 59.8487 61.1592C59.3915 63.0078 58.7953 64.9357 58.0599 66.9431C57.2251 64.121 56.6287 61.1196 56.3107 57.9197ZM23.1571 110.234C22.8191 109.399 23.1969 107.789 25.2641 105.801C28.4245 102.78 33.3736 100.395 40.2708 98.5863C38.959 100.375 37.667 102.005 36.4148 103.496C34.5066 105.801 32.6781 107.749 31.0283 109.22C29.6171 110.492 28.0667 111.287 26.5959 111.486C26.3375 111.526 26.0791 111.546 25.8208 111.546C24.5285 111.546 23.4751 111.029 23.1571 110.234ZM54.9193 89.1055L55.0585 88.8869L54.84 88.9267C54.8798 88.8273 54.9394 88.7279 54.9989 88.6485C55.8337 87.2374 56.8871 85.4286 58.0201 83.3416L58.1195 83.5602L58.3779 83.0236C59.2127 84.2162 60.1271 85.389 61.0811 86.5218C61.5383 87.0583 62.0153 87.5751 62.4922 88.0919L62.1742 88.1117L62.4524 88.3701C61.6374 88.4297 60.7829 88.5093 59.928 88.5887C59.3915 88.6483 58.8348 88.6881 58.2782 88.7477C57.1257 88.8668 55.9927 88.9863 54.9193 89.1055ZM88.3711 101.508C86.0057 99.9975 83.3624 97.8707 80.1026 95.0283C84.7337 95.5053 88.3711 96.5191 90.9551 98.0297C92.0881 98.6857 92.9426 99.3615 93.519 100.017C94.473 101.031 94.811 101.945 94.632 102.561C94.473 103.178 93.7774 103.595 92.9226 103.595C92.4256 103.595 91.909 103.476 91.3722 103.217C90.4578 102.78 89.5038 102.243 88.4903 101.588C88.4505 101.588 88.4109 101.548 88.3711 101.508Z" fill="#F2F2F2"/>
</svg>
