<svg width="25" height="24" viewBox="0 0 25 24" fill="none" xmlns="http://www.w3.org/2000/svg">
<path d="M18.0291 7.77C17.9591 7.76 17.8891 7.76 17.8191 7.77C16.2691 7.72 15.0391 6.45 15.0391 4.89C15.0391 3.3 16.3291 2 17.9291 2C19.5191 2 20.8191 3.29 20.8191 4.89C20.8091 6.45 19.5791 7.72 18.0291 7.77Z" fill="#3361FF"/>
<path d="M21.2916 14.6999C20.1716 15.4499 18.6016 15.7299 17.1516 15.5399C17.5316 14.7199 17.7316 13.8099 17.7416 12.8499C17.7416 11.8499 17.5216 10.8999 17.1016 10.0699C18.5816 9.86991 20.1516 10.1499 21.2816 10.8999C22.8616 11.9399 22.8616 13.6499 21.2916 14.6999Z" fill="#3361FF"/>
<path d="M6.94016 7.77C7.01016 7.76 7.08016 7.76 7.15016 7.77C8.70016 7.72 9.93016 6.45 9.93016 4.89C9.93016 3.29 8.64016 2 7.04016 2C5.45016 2 4.16016 3.29 4.16016 4.89C4.16016 6.45 5.39016 7.72 6.94016 7.77Z" fill="#3361FF"/>
<path d="M7.05109 12.8501C7.05109 13.8201 7.26109 14.7401 7.64109 15.5701C6.23109 15.7201 4.76109 15.4201 3.68109 14.7101C2.10109 13.6601 2.10109 11.9501 3.68109 10.9001C4.75109 10.1801 6.26109 9.8901 7.68109 10.0501C7.27109 10.8901 7.05109 11.8401 7.05109 12.8501Z" fill="#3361FF"/>
<path d="M12.6208 15.87C12.5408 15.86 12.4508 15.86 12.3608 15.87C10.5208 15.81 9.05078 14.3 9.05078 12.44C9.06078 10.54 10.5908 9 12.5008 9C14.4008 9 15.9408 10.54 15.9408 12.44C15.9308 14.3 14.4708 15.81 12.6208 15.87Z" fill="#3361FF"/>
<path d="M9.37078 17.9401C7.86078 18.9501 7.86078 20.6101 9.37078 21.6101C11.0908 22.7601 13.9108 22.7601 15.6308 21.6101C17.1408 20.6001 17.1408 18.9401 15.6308 17.9401C13.9208 16.7901 11.1008 16.7901 9.37078 17.9401Z" fill="#3361FF"/>
</svg>
