<svg width="24" height="12" viewBox="0 0 24 12" fill="none" xmlns="http://www.w3.org/2000/svg">
<path d="M1.86308 11.686L11.2331 2.464C11.4375 2.26174 11.7135 2.1483 12.0011 2.1483C12.2887 2.1483 12.5646 2.26174 12.7691 2.464L22.1391 11.684C22.3448 11.8862 22.6217 11.9994 22.9101 11.9994C23.1985 11.9994 23.4754 11.8862 23.6811 11.684C23.7824 11.5852 23.8629 11.4672 23.9179 11.3369C23.9728 11.2065 24.0011 11.0665 24.0011 10.925C24.0011 10.7835 23.9728 10.6435 23.9179 10.5131C23.8629 10.3828 23.7824 10.2648 23.6811 10.166L14.3131 0.946C13.696 0.340148 12.8658 0.000709534 12.0011 0.000709534C11.1363 0.000709534 10.3061 0.340148 9.68908 0.946L0.321082 10.166C0.219478 10.2648 0.138714 10.3829 0.0835643 10.5135C0.0284148 10.644 0 10.7843 0 10.926C0 11.0677 0.0284148 11.208 0.0835643 11.3385C0.138714 11.4691 0.219478 11.5872 0.321082 11.686C0.526793 11.8882 0.803669 12.0014 1.09208 12.0014C1.3805 12.0014 1.65737 11.8882 1.86308 11.686Z" fill="black"/>
</svg>
