<svg width="24" height="12" viewBox="0 0 24 12" fill="none" xmlns="http://www.w3.org/2000/svg">
<path d="M22.1369 0.314007L12.7669 9.53601C12.5625 9.73826 12.2865 9.85171 11.9989 9.85171C11.7113 9.85171 11.4354 9.73826 11.2309 9.53601L1.86092 0.316008C1.65521 0.113856 1.37833 0.000583649 1.08992 0.000583649C0.801504 0.000583649 0.52463 0.113856 0.318918 0.316008C0.217621 0.414762 0.137117 0.532793 0.0821495 0.663147C0.0271816 0.793501 -0.00113678 0.933539 -0.00113678 1.07501C-0.00113678 1.21648 0.0271816 1.35651 0.0821495 1.48687C0.137117 1.61722 0.217621 1.73525 0.318918 1.83401L9.68692 11.054C10.304 11.6599 11.1342 11.9993 11.9989 11.9993C12.8637 11.9993 13.6939 11.6599 14.3109 11.054L23.6789 1.83401C23.7805 1.73522 23.8613 1.61707 23.9164 1.48653C23.9716 1.35599 24 1.21572 24 1.07401C24 0.932297 23.9716 0.792027 23.9164 0.661488C23.8613 0.530949 23.7805 0.412792 23.6789 0.314007C23.4732 0.111856 23.1963 -0.00141716 22.9079 -0.00141716C22.6195 -0.00141716 22.3426 0.111856 22.1369 0.314007Z" fill="black"/>
</svg>
