<svg width="56" height="56" viewBox="0 0 56 56" fill="none" xmlns="http://www.w3.org/2000/svg">
<path fill-rule="evenodd" clip-rule="evenodd" d="M21.9649 20.3208C21.7494 20.1126 21.4607 19.9974 21.161 20C20.8614 20.0026 20.5747 20.1228 20.3628 20.3347C20.1509 20.5466 20.0307 20.8333 20.0281 21.1329C20.0255 21.4326 20.1407 21.7213 20.3489 21.9368L26.398 27.986L20.3489 34.0351C20.2397 34.1405 20.1527 34.2666 20.0928 34.4061C20.0329 34.5455 20.0014 34.6955 20 34.8472C19.9987 34.999 20.0276 35.1495 20.0851 35.2899C20.1426 35.4304 20.2274 35.558 20.3347 35.6653C20.442 35.7726 20.5696 35.8574 20.7101 35.9149C20.8505 35.9724 21.001 36.0013 21.1528 36C21.3045 35.9986 21.4545 35.9671 21.5939 35.9072C21.7334 35.8473 21.8595 35.7603 21.9649 35.6511L28.014 29.602L34.0632 35.6511C34.2787 35.8593 34.5674 35.9745 34.8671 35.9719C35.1667 35.9693 35.4534 35.8491 35.6653 35.6372C35.8772 35.4253 35.9974 35.1386 36 34.839C36.0026 34.5393 35.8874 34.2506 35.6792 34.0351L29.63 27.986L35.6792 21.9368C35.8874 21.7213 36.0026 21.4326 36 21.1329C35.9974 20.8333 35.8772 20.5466 35.6653 20.3347C35.4534 20.1228 35.1667 20.0026 34.8671 20C34.5674 19.9974 34.2787 20.1126 34.0632 20.3208L28.014 26.37L21.9649 20.3208Z" fill="black"/>
</svg>
