<svg width="48" height="49" viewBox="0 0 48 49" fill="none" xmlns="http://www.w3.org/2000/svg">
<path d="M37.3016 18.4C33.3216 18.4 30.1016 15.16 30.1016 11.2C30.1016 9.58 30.6416 8.04 31.6416 6.76C31.6816 6.7 31.7416 6.66 31.7816 6.6C33.1416 4.94 35.1416 4 37.3016 4C41.2616 4 44.5016 7.24 44.5016 11.2C44.5016 13.42 43.5016 15.48 41.7416 16.86C40.4616 17.86 38.9216 18.4 37.3016 18.4ZM33.9016 8.74C33.3816 9.46 33.1016 10.3 33.1016 11.2C33.1016 13.52 34.9816 15.4 37.3016 15.4C38.2416 15.4 39.1416 15.08 39.8816 14.5C40.9016 13.7 41.5016 12.5 41.5016 11.2C41.5016 8.88 39.6216 7 37.3016 7C36.0016 7 34.8016 7.58 34.0216 8.6C33.9816 8.66 33.9416 8.7 33.9016 8.74Z" fill="#2056A7"/>
<path d="M10.7 18.4C9.08 18.4 7.54 17.86 6.26 16.86C4.5 15.48 3.5 13.42 3.5 11.2C3.5 7.24 6.74 4 10.7 4C12.92 4 14.98 5 16.36 6.76C17.36 8.04 17.9 9.58 17.9 11.2C17.9 15.16 14.66 18.4 10.7 18.4ZM10.7 7C8.38 7 6.5 8.88 6.5 11.2C6.5 12.5 7.08 13.7 8.12 14.5C8.86 15.08 9.76 15.4 10.7 15.4C13.02 15.4 14.9 13.52 14.9 11.2C14.9 10.26 14.58 9.36 14 8.62C13.2 7.58 12 7 10.7 7Z" fill="#2056A7"/>
<path d="M37.3016 45C35.1416 45 33.1416 44.06 31.7816 42.4C31.7216 42.36 31.6816 42.3 31.6416 42.24C30.6416 40.96 30.1016 39.42 30.1016 37.8C30.1016 33.82 33.3416 30.6 37.3016 30.6C38.9216 30.6 40.4616 31.14 41.7416 32.14C41.8016 32.18 41.8416 32.24 41.9016 32.28C43.5616 33.64 44.5016 35.64 44.5016 37.8C44.5016 41.76 41.2616 45 37.3016 45ZM33.9016 40.26C33.9416 40.3 33.9816 40.34 34.0216 40.4C34.8016 41.42 36.0016 42 37.3016 42C39.6216 42 41.5016 40.12 41.5016 37.8C41.5016 36.5 40.9216 35.3 39.9016 34.52C39.8416 34.48 39.8016 34.44 39.7616 34.4C39.0416 33.88 38.2016 33.6 37.3016 33.6C34.9816 33.6 33.1016 35.48 33.1016 37.8C33.1016 38.7 33.3816 39.54 33.9016 40.26Z" fill="#2056A7"/>
<path d="M10.7 45C6.74 45 3.5 41.76 3.5 37.8C3.5 35.64 4.44 33.64 6.1 32.28C6.14 32.22 6.2 32.18 6.26 32.14C7.54 31.14 9.08 30.6 10.7 30.6C14.68 30.6 17.9 33.84 17.9 37.8C17.9 39.42 17.36 40.96 16.36 42.24C14.98 44 12.92 45 10.7 45ZM8.24 34.4C8.2 34.44 8.16 34.48 8.1 34.52C7.08 35.3 6.5 36.5 6.5 37.8C6.5 40.12 8.38 42 10.7 42C12 42 13.2 41.42 14 40.38C14.58 39.64 14.9 38.74 14.9 37.8C14.9 35.48 13.02 33.6 10.7 33.6C9.8 33.6 8.96 33.88 8.24 34.4Z" fill="#2056A7"/>
<path d="M24 45C20.68 45 17.38 44.18 14.48 42.64C14.08 42.44 13.82 42.06 13.72 41.62C13.62 41.18 13.72 40.74 14 40.38C14.58 39.64 14.9 38.74 14.9 37.8C14.9 35.48 13.02 33.6 10.7 33.6C9.76 33.6 8.86 33.92 8.12 34.5C7.78 34.78 7.32 34.88 6.88 34.78C6.44 34.68 6.08 34.42 5.86 34.02C4.3 31.08 3.5 27.88 3.5 24.5C3.5 21.18 4.32 17.88 5.86 14.98C6.06 14.58 6.44 14.32 6.88 14.22C7.32 14.12 7.76 14.24 8.12 14.5C8.86 15.08 9.76 15.4 10.7 15.4C13.02 15.4 14.9 13.52 14.9 11.2C14.9 10.26 14.58 9.36 14 8.62C13.72 8.28 13.62 7.82 13.72 7.38C13.82 6.94 14.08 6.58 14.48 6.36C17.38 4.82 20.68 4 24 4C27.38 4 30.58 4.8 33.52 6.36C33.92 6.56 34.18 6.94 34.28 7.38C34.38 7.82 34.26 8.26 34 8.62C33.42 9.36 33.1 10.26 33.1 11.2C33.1 13.52 34.98 15.4 37.3 15.4C38.24 15.4 39.14 15.08 39.88 14.5C40.22 14.22 40.68 14.12 41.12 14.22C41.56 14.32 41.92 14.58 42.14 14.98C43.68 17.88 44.5 21.18 44.5 24.5C44.5 27.88 43.7 31.08 42.14 34.02C41.94 34.42 41.56 34.68 41.12 34.78C40.68 34.88 40.24 34.76 39.88 34.5C39.14 33.92 38.24 33.6 37.3 33.6C34.98 33.6 33.1 35.48 33.1 37.8C33.1 38.74 33.42 39.64 34 40.38C34.28 40.72 34.38 41.18 34.28 41.62C34.18 42.06 33.92 42.42 33.52 42.64C30.58 44.2 27.38 45 24 45ZM17.3 40.66C21.54 42.44 26.5 42.42 30.68 40.66C30.28 39.76 30.08 38.8 30.08 37.8C30.08 33.82 33.32 30.6 37.28 30.6C38.28 30.6 39.24 30.8 40.14 31.2C41.02 29.1 41.48 26.86 41.48 24.5C41.48 22.2 41.02 19.9 40.14 17.8C39.24 18.2 38.28 18.4 37.28 18.4C33.3 18.4 30.08 15.16 30.08 11.2C30.08 10.2 30.28 9.24 30.68 8.34C26.5 6.58 21.52 6.58 17.3 8.34C17.7 9.24 17.9 10.2 17.9 11.2C17.9 15.18 14.66 18.4 10.7 18.4C9.7 18.4 8.74 18.2 7.84 17.8C6.96 19.9 6.5 22.2 6.5 24.5C6.5 26.84 6.94 29.08 7.84 31.2C8.74 30.8 9.7 30.6 10.7 30.6C14.68 30.6 17.9 33.84 17.9 37.8C17.9 38.8 17.7 39.76 17.3 40.66Z" fill="#2056A7"/>
</svg>
