<svg width="32" height="32" viewBox="0 0 32 32" fill="none" xmlns="http://www.w3.org/2000/svg">
<path d="M19.9993 30.3334H11.9993C4.75935 30.3334 1.66602 27.24 1.66602 20V12C1.66602 4.76002 4.75935 1.66669 11.9993 1.66669H19.9993C27.2393 1.66669 30.3327 4.76002 30.3327 12V20C30.3327 27.24 27.2393 30.3334 19.9993 30.3334ZM11.9993 3.66669C5.85268 3.66669 3.66602 5.85335 3.66602 12V20C3.66602 26.1467 5.85268 28.3334 11.9993 28.3334H19.9993C26.146 28.3334 28.3327 26.1467 28.3327 20V12C28.3327 5.85335 26.146 3.66669 19.9993 3.66669H11.9993Z" fill="white"/>
<path d="M29.3317 12.3333H2.70508C2.15841 12.3333 1.70508 11.88 1.70508 11.3333C1.70508 10.7866 2.15841 10.3333 2.70508 10.3333H29.3317C29.8784 10.3333 30.3317 10.7866 30.3317 11.3333C30.3317 11.88 29.8784 12.3333 29.3317 12.3333Z" fill="white"/>
<path d="M29.3317 21.6667H2.70508C2.15841 21.6667 1.70508 21.2134 1.70508 20.6667C1.70508 20.12 2.15841 19.6667 2.70508 19.6667H29.3317C29.8784 19.6667 30.3317 20.12 30.3317 20.6667C30.3317 21.2134 29.8784 21.6667 29.3317 21.6667Z" fill="white"/>
<path d="M11.3457 30.3197C10.799 30.3197 10.3457 29.8664 10.3457 29.3197V2.67969C10.3457 2.13302 10.799 1.67969 11.3457 1.67969C11.8924 1.67969 12.3457 2.13302 12.3457 2.67969V29.3064C12.3457 29.8664 11.9057 30.3197 11.3457 30.3197Z" fill="white"/>
<path d="M20.6797 30.3197C20.133 30.3197 19.6797 29.8664 19.6797 29.3197V2.67969C19.6797 2.13302 20.133 1.67969 20.6797 1.67969C21.2264 1.67969 21.6797 2.13302 21.6797 2.67969V29.3064C21.6797 29.8664 21.2397 30.3197 20.6797 30.3197Z" fill="white"/>
</svg>
